<svg xmlns="http://www.w3.org/2000/svg" fill-rule="evenodd" stroke-linecap="round" stroke-linejoin="round" stroke-miterlimit="1.5" clip-rule="evenodd" viewBox="0 0 534 534" id="logo">
  <defs/>
  <path fill="none" d="M0 0h533.3v533.3H0z"/>
  <path fill="#98878f" d="M425.5 91a242.4 242.4 0 0176.9 177.6c0 133.3-106.5 241.5-237.7 241.5a235 235 0 01-173-76c97.1 18.7 183-46.4 181.2-150.2-2-117.7 56.5-185.1 152.6-193z"/>
  <path fill="#985e6d" d="M91.8 434A242.3 242.3 0 0127 268.6C27 135.4 133.6 27.2 264.7 27.2c62 0 118.5 24.1 160.8 63.7-96 7.9-154.7 75.3-152.6 193 1.8 103.8-84 169-181.1 150.1z"/>
  <ellipse cx="339.9" cy="343.7" fill="none" stroke="#fafbfc" stroke-width="12.5" rx="110.6" ry="112.3"/>
  <path fill="#fafbfc" d="M401 305.5c2.2 2.1 5.2 3.7 8.3 3 2.5-.6 4.3-2.2 5.8-3.8l4.5-4.9c3-2.9 6-4.8 9.8-5.3 3.5-.4 7.8.4 13.3 4.3 3 2.2 2.9 1.7 5.8 4.7a6.4 6.4 0 01-9 8.9c-2.1-2.1-2-1.7-4.2-3.2-1.9-1.4-3.2-2.2-4.4-2-.6 0-1 .5-1.6 1-.9.7-1.7 1.7-2.6 2.7a28 28 0 01-14.6 10c-8.1 1.8-16.7-2.2-21.9-8.3-.7-1-4-5.5-4.4-8.4-.4-2.6.4-4.8 2-6.4a7 7 0 014.1-2 14.6 14.6 0 016.7 1.4 6.4 6.4 0 012.3 8.3zm-5.4 2l-3 .9s1.6-.4 3-1zM343 355c-.5 5.8 1.5 11.9 5.4 17.4 5 7.1 13.4 13.4 22.4 17.2 25.7 10.8 48 3.1 72.2-7.4a6.4 6.4 0 00-5-11.6c-21 9-40 16.6-62.3 7.3a40.1 40.1 0 01-17-12.9c-2-2.8-3.3-5.9-3-9a6.4 6.4 0 00-12.7-1z"/>
  <g fill="#fafbfc">
    <path d="M286 361.2c-1.2-1.2-5-4.8-5.8-5.2a54 54 0 00-30.6-5c-16 2.2-32.8 12-46.3 25.3a88.8 88.8 0 00-26.6 46.3 6.4 6.4 0 01-12.5-2c3-18.7 14.6-38 30.2-53.3 15.6-15.3 35.1-26.4 53.6-28.8 11.9-1.6 27.6.4 38.3 6.4 1.6.9 8.2 6.2 10.4 9 2.4 3.4 1.8 6.5 1 8a6.4 6.4 0 01-11.7-.7zM316.8 418.9a80 80 0 00-5.9-5.2 54 54 0 00-30.5-4.9c-16 2.1-32.8 12-46.3 25.3a88.8 88.8 0 00-26.6 46.2 6.4 6.4 0 01-12.5-2c3-18.7 14.6-38 30.2-53.3 15.6-15.3 35.1-26.4 53.5-28.8 12-1.5 27.7.5 38.4 6.4 1.6.9 8.2 6.2 10.3 9.1 2.5 3.4 1.8 6.5 1 8a6.4 6.4 0 01-11.6-.8z"/>
  </g>
  <g fill="none" stroke="#fafbfc" stroke-width="12.5">
    <path d="M294.7 233s-50-112.7-136-130c-86.2-17.3 60 17.3 115.3 149.9M340 225.5s1-118.6-70-170.2C199.3 3.7 317.6 96 313.2 234"/>
  </g>
</svg>
